<svg width="700pt" height="150pt" version="1.0" viewBox="0 0 109 24" xmlns="http://www.w3.org/2000/svg"><metadata>Created by potrace 1.16, written by Peter Selinger 2001-2019</metadata><g transform="translate(0 150) scale(.1 -.1)"><path d="m3785 1266c13-20 14-35 5-97-18-127-14-119-70-119-91 0-118-25-133-122l-6-38h86c83 0 85-1 80-22-3-13-16-98-28-191-22-157-22-168-6-184 14-14 43-18 174-21 231-6 252 3 268 112 6 35 4 46-6 47-8 1-65 0-126-1l-113-2v29c0 15 7 71 15 123s15 98 15 103c0 4 44 7 98 7 53 0 107 3 120 6 28 8 48 44 57 107l7 47h-129-130l8 48c4 26 8 75 8 110 1 58-1 63-25 72-14 6-61 10-105 10h-79l15-24z"/><path d="m5392 1280c-27-11-47-56-57-127l-7-51 79-4c121-5 110-18 129 140l7 52-64-1c-35 0-74-4-87-9z"/><path d="m305 1040c-12-4-27-15-34-24-10-12-78-422-81-488 0-4-12-19-27-33l-28-25h76c101 0 137 8 155 35 8 12 26 98 39 191 14 93 27 175 30 182 3 8 36 12 115 12 131 0 121 26 85-220-14-95-25-179-25-187 0-13 12-15 75-11 77 5 101 16 116 55 14 38 70 457 64 481-3 12-17 27-31 32-31 12-501 12-529 0z"/><path d="m914 1031c17-19 16-30-13-238-17-120-31-235-31-255 0-61 6-63 274-66 263-4 305 2 324 43 16 35 75 463 67 492-3 13-17 28-31 33-32 12-144 13-144 1 0-14-50-363-55-388-5-22-9-23-115-23-60 0-111 4-115 9-3 5 6 89 19 185 14 97 23 183 19 192-9 24-47 34-135 34-79 0-81 0-64-19z"/><path d="m1643 1040c-12-5-27-18-33-29-15-28-51-276-44-296 12-29 51-35 235-35 140 0 179-3 179-13 0-33-23-37-226-37-227 0-214 5-214-80 0-76-3-75 284-75 138 0 263 3 277 7s31 20 38 34c14 31 41 200 41 256 0 65-8 68-221 68h-190l3 23c3 22 5 22 203 28 110 3 201 6 202 7 12 9 32 66 38 105l7 47-278-1c-154 0-289-4-301-9z"/><path d="m2318 1039c-36-14-42-36-79-292-28-202-34-224-57-249l-26-28h75c96 0 143 13 157 45 6 13 21 93 32 177s25 163 30 176c9 22 12 22 193 22 148 0 187 3 204 15 23 16 43 70 43 118v27l-272-1c-151 0-285-5-300-10z"/><path d="m2950 986c0-95 3-96 222-96 102 0 178-4 178-9 0-40-7-41-190-41-186 0-222-6-239-39-13-23-41-204-41-260 0-65 4-66 270-69 266-4 310 2 329 45 13 29 71 412 71 469 0 62-11 64-322 64h-278v-64z"/><path d="m4682 1043c-12-2-29-14-37-26-8-13-28-124-47-256-29-209-35-238-57-264l-25-29 96 3c139 6 136 0 173 269 23 166 8 150 141 150 63 0 114-2 114-5 0-13-51-372-55-392-5-22-2-23 47-23 80 0 127 16 139 48 12 30 69 419 69 469 0 60-14 63-290 62-135-1-255-4-268-6z"/><path d="m5320 1041c0-4-16-117-35-251s-35-246-35-251c0-4-12-21-26-38l-26-31h74c105 0 144 13 158 53 8 22 80 492 80 525 0 1-43 2-95 2s-95-4-95-9z"/><path d="m5620 1041c-35-9-47-41-65-164-21-140-18-179 15-188 14-4 105-7 203-8 138-1 177-4 177-14 0-33-23-37-226-37h-201l-7-31c-11-54-7-96 11-110 12-11 71-15 252-18 264-3 310 3 330 45 14 31 41 200 41 256 0 65-8 68-221 68h-190l3 23c3 22 5 22 203 28 110 3 201 6 202 7 12 9 32 66 38 105l7 47-273-1c-151-1-285-4-299-8z"/><path d="m6244 988c9-96 13-98 220-98 95 0 176-3 179-6 3-4 2-15-3-25-9-16-29-18-200-21-231-4-222 1-244-138-8-52-16-111-16-130-4-74-2-78 38-89 40-12 471-13 511-2 49 13 59 44 91 280 17 124 29 235 25 248-3 13-17 28-31 33-14 6-148 10-301 10h-276l7-62z"/></g></svg>
